# xmcd CD database file
#
# Track frame offsets:
#	150
#	14913
#	26727
#	38823
#	52569
#	65465
#	79409
#	91795
#	105974
#	118251
#	132783
#	150020
#
# Disc length: 2188 seconds
#
# Revision: 0
# Processed by: cddbd v1.5.2PL0 Copyright (c) Steve Scherf et al.
# Submitted via: CDex 1.51
#
DISCID=89088a0c
DTITLE=Various Artist - 70s Country Outlaw Hits
DYEAR=2008
DGENRE=Country
TTITLE0=Johnny Cash and Waylon Jennings - there ain't no good chain gang
TTITLE1=David Allan Coe - ruby don't take your love to town
TTITLE2=Johnny Paycheck - take this job and shove it
TTITLE3=Tanya Tucker - I believe the south is going to rise again
TTITLE4=Merle Haggard - the fightin' side of me
TTITLE5=Johnny Cash /oney
TTITLE6=Freddy Fender - wasted days and wasted nights
TTITLE7=Cal Smith - the lord knows I'm drinking
TTITLE8=Johnny Russell - rednecks, white socks and blue ribbon beer
TTITLE9=Johnny Paycheck /I'm the only hell (Mama ever raised)
TTITLE10=Kenny Rogers and The First Edition - something's burning
TTITLE11=David Allan Coe - ride me down easy
EXTD=YEAR: 2008
EXTT0=
EXTT1=
EXTT2=
EXTT3=
EXTT4=
EXTT5=
EXTT6=
EXTT7=
EXTT8=
EXTT9=
EXTT10=
EXTT11=
PLAYORDER=
